<svg width="287" height="629" viewBox="0 0 287 629" fill="none" xmlns="http://www.w3.org/2000/svg">
<path d="M325.556 50.2239C314.987 79.5971 315.928 118.363 319.114 159.137C322.191 198.393 326.18 238.984 319.739 271.375C306.46 338.162 259.085 359.658 211.398 362.89C158.096 366.487 97.7956 351.536 51.7831 376.263C29.2164 388.394 11.1128 412.187 7.93746 452.288C5.31067 485.515 15.1771 523.756 31.4362 561.474C40.6768 582.904 51.2185 603.469 61.9042 623.944L57.8306 628.113C54.8017 622.313 51.7729 616.513 48.8141 610.699C31.5655 576.931 14.5753 540.892 6.24228 504.426C-3.21453 463.003 0.656306 426.583 12.7677 402.408C27.5377 372.894 53.036 360.525 79.9435 355.294C105.871 350.252 133.956 351.813 161.761 352.847C214.839 354.83 271.796 353.659 301.001 300.034C307.834 287.486 312.759 272.236 315.037 254.374C317.297 236.733 316.922 216.99 315.686 196.791C313.272 157.263 307.641 115.327 311.293 79.8585C315.062 43.1638 328.511 14.9439 348.807 0.919499C348.831 0.894231 348.866 0.88748 348.899 0.853789L354.136 10.2402C341.798 18.6216 332.037 32.2476 325.556 50.2239Z" fill="url(#paint0_linear_257_664)"/>
<defs>
<linearGradient id="paint0_linear_257_664" x1="330.789" y1="57.239" x2="-93.337" y2="344.537" gradientUnits="userSpaceOnUse">
<stop offset="0.0467524" stop-color="#F4F8FD"/>
<stop offset="0.473931" stop-color="#3EE8B5"/>
<stop offset="1" stop-color="#EFF1FD"/>
</linearGradient>
</defs>
</svg>
